<?xml version="1.0" standalone="no"?>
<!DOCTYPE svg PUBLIC "-//W3C//DTD SVG 20010904//EN"
 "http://www.w3.org/TR/2001/REC-SVG-20010904/DTD/svg10.dtd">
<svg version="1.0" xmlns="http://www.w3.org/2000/svg"
 width="1261.000000pt" height="1261.000000pt" viewBox="0 0 1261.000000 1261.000000"
 preserveAspectRatio="xMidYMid meet">
<metadata>
Created by potrace 1.14, written by Peter Selinger 2001-2017
</metadata>
<g transform="translate(0.000000,1261.000000) scale(0.100000,-0.100000)"
fill="#000000" stroke="none">
<path d="M2338 8655 c-2 -1 -46 -6 -98 -9 -52 -4 -106 -9 -120 -11 -78 -12
-107 -17 -123 -21 -10 -3 -30 -7 -45 -9 -15 -3 -37 -7 -49 -10 -13 -3 -31 -7
-41 -9 -10 -2 -42 -11 -72 -20 -39 -12 -57 -13 -67 -5 -7 6 -13 8 -13 3 0 -5
-5 -1 -10 8 -15 25 -77 16 -108 -16 -40 -40 -31 -110 18 -136 34 -18 70 -19
87 -2 9 9 18 16 20 15 2 -2 3 0 4 5 0 4 7 15 16 24 9 10 13 26 10 37 -5 19 5
26 48 37 33 9 57 15 75 18 11 3 24 7 28 10 5 3 31 8 58 12 27 3 52 8 56 10 4
3 29 7 55 10 26 2 59 7 73 10 127 26 490 21 665 -10 17 -3 46 -8 65 -11 19 -3
42 -8 50 -11 8 -3 26 -8 40 -10 40 -8 233 -63 260 -76 14 -6 34 -14 45 -18 11
-4 31 -12 45 -18 14 -6 32 -13 40 -14 8 -2 21 -9 28 -16 8 -7 17 -10 22 -7 5
3 10 2 12 -3 4 -10 120 -67 131 -64 4 1 7 -1 7 -6 0 -4 17 -16 38 -27 20 -11
40 -24 44 -30 4 -5 8 -6 8 -2 0 5 6 2 14 -6 8 -7 38 -29 68 -48 29 -19 63 -42
75 -52 11 -11 25 -20 29 -21 5 0 17 -10 29 -21 11 -11 36 -33 56 -50 31 -27
35 -35 34 -78 0 -41 4 -52 28 -73 28 -24 97 -34 97 -14 0 6 6 10 13 10 27 0
46 60 33 100 -15 43 -36 55 -96 55 -56 0 -60 2 -135 64 -43 35 -74 57 -69 50
4 -8 -6 -1 -23 15 -17 16 -33 28 -37 28 -3 -1 -17 10 -32 23 -15 14 -30 22
-35 19 -5 -3 -9 -1 -9 5 0 10 -53 42 -66 40 -4 0 -10 3 -13 9 -10 15 -99 61
-105 55 -3 -4 -6 -1 -6 6 0 7 -4 10 -9 7 -5 -4 -11 -3 -13 1 -7 16 -175 90
-281 124 -83 26 -140 43 -152 44 -5 0 -14 3 -20 7 -12 7 -57 17 -102 22 -18 3
-36 7 -40 9 -10 6 -106 19 -228 32 -63 7 -302 14 -307 10z"/>
<path d="M10658 8654 c-2 -2 -43 -5 -91 -8 -49 -3 -103 -8 -120 -11 -151 -25
-190 -32 -194 -35 -4 -3 -7 -4 -58 -14 -22 -4 -40 -7 -40 -5 0 1 -9 -3 -21 -9
-38 -20 -73 -22 -91 -4 -9 9 -18 16 -20 15 -1 -1 -9 0 -17 3 -19 7 -88 -15
-81 -26 3 -4 -2 -11 -11 -14 -11 -4 -14 -18 -12 -53 3 -41 8 -50 36 -70 20
-13 42 -20 55 -17 12 3 28 6 35 6 18 2 55 66 49 87 -3 15 4 21 37 32 22 7 45
15 51 18 5 3 16 6 25 7 8 1 60 11 115 22 173 35 263 44 465 44 80 1 174 -2
210 -6 119 -13 135 -15 165 -21 17 -4 41 -8 55 -10 14 -2 25 -4 25 -5 0 -1 11
-4 25 -6 14 -3 43 -10 65 -16 22 -6 49 -12 60 -14 11 -2 47 -13 80 -24 33 -12
65 -23 70 -24 6 -2 18 -6 27 -10 9 -4 22 -9 30 -10 7 -1 23 -8 36 -14 12 -7
22 -10 22 -6 0 4 9 -1 20 -11 11 -10 20 -15 20 -10 0 4 6 2 13 -4 8 -6 16 -9
19 -6 3 3 11 -1 18 -10 7 -8 21 -15 31 -15 11 0 19 -4 19 -10 0 -5 9 -10 20
-10 11 0 20 -3 20 -8 0 -4 20 -16 45 -27 25 -11 45 -23 45 -26 0 -4 8 -9 18
-13 9 -3 33 -16 53 -28 19 -13 50 -32 67 -43 18 -10 32 -23 32 -27 0 -4 7 -8
15 -8 8 0 23 -9 32 -20 10 -11 22 -20 27 -20 5 0 17 -10 27 -22 11 -11 19 -18
19 -15 0 3 10 -4 23 -17 13 -13 29 -25 37 -28 9 -3 14 -21 15 -54 2 -76 31
-114 87 -114 31 0 74 24 70 38 -1 7 2 12 7 12 15 0 20 54 6 80 -21 40 -59 56
-104 44 -37 -10 -41 -9 -77 25 -49 47 -236 181 -245 175 -4 -2 -10 3 -13 12
-3 8 -10 12 -16 9 -5 -3 -10 -1 -10 4 0 6 -6 11 -14 11 -8 0 -16 4 -18 9 -3
10 -258 144 -258 136 0 -3 -10 1 -22 9 -22 13 -97 40 -108 38 -3 0 -9 3 -15 8
-15 11 -204 67 -260 76 -5 1 -12 3 -15 4 -8 3 -43 10 -75 15 -16 3 -41 7 -55
10 -30 6 -87 14 -155 21 -59 6 -323 13 -327 8z"/>
<path d="M5936 8643 c-1 -1 -42 -4 -91 -7 -90 -6 -129 -10 -195 -22 -19 -3
-44 -8 -55 -9 -11 -2 -20 -4 -20 -5 0 -1 -11 -3 -25 -5 -53 -7 -79 -14 -98
-24 -11 -6 -21 -8 -24 -6 -4 5 -159 -43 -213 -66 -16 -6 -34 -13 -40 -14 -12
-1 -44 -15 -123 -51 -31 -14 -58 -25 -60 -25 -1 1 -19 -10 -39 -23 -20 -14
-40 -23 -45 -20 -4 3 -8 0 -8 -5 0 -6 -5 -11 -10 -11 -6 0 -37 -16 -68 -37
-111 -70 -115 -72 -145 -57 -66 35 -140 -20 -129 -95 15 -104 170 -93 177 12
3 45 9 53 53 77 43 24 75 43 82 50 3 3 23 14 45 25 22 11 48 27 59 35 10 8 21
14 25 14 3 -1 43 16 88 37 46 21 85 39 88 39 3 0 22 7 43 16 20 10 42 17 47
18 9 1 101 30 135 43 8 3 22 7 30 8 8 2 25 6 38 9 48 13 166 36 215 42 15 2
39 6 55 9 119 22 467 22 582 0 12 -2 43 -7 69 -10 69 -10 82 -12 131 -24 25
-7 54 -14 65 -16 42 -8 50 -11 63 -18 6 -5 12 -6 12 -3 0 3 17 -1 38 -9 20 -8
46 -15 57 -17 11 -2 22 -6 25 -10 3 -4 17 -10 30 -12 14 -2 27 -5 30 -6 3 -2
8 -2 13 -1 4 0 7 -3 7 -8 0 -5 12 -12 26 -15 15 -4 69 -27 120 -51 89 -41 94
-45 94 -74 0 -17 0 -34 -1 -37 -1 -3 11 -19 26 -34 56 -58 155 -16 155 66 0
19 -5 34 -11 34 -5 0 -8 4 -5 9 16 25 -95 58 -113 34 -13 -18 -42 -11 -136 33
-54 25 -107 48 -118 50 -10 2 -24 7 -31 12 -12 10 -188 68 -227 76 -13 2 -31
7 -39 10 -8 3 -26 8 -40 10 -14 3 -36 7 -50 10 -14 3 -36 7 -50 10 -14 2 -41
7 -60 11 -86 16 -443 38 -454 28z"/>
<path d="M1284 8442 c-36 -5 -68 -48 -68 -91 0 -33 -5 -41 -33 -56 -18 -10
-33 -22 -33 -27 0 -4 -6 -8 -12 -8 -7 0 -26 -11 -42 -25 -16 -14 -33 -25 -37
-25 -7 0 -108 -82 -169 -137 -14 -13 -28 -23 -33 -23 -4 0 -5 -4 -2 -10 3 -5
1 -10 -4 -10 -18 0 -61 -42 -54 -53 3 -6 1 -7 -4 -4 -6 4 -35 -21 -64 -54 -30
-34 -63 -71 -74 -84 -40 -44 -65 -75 -60 -75 2 0 -9 -14 -25 -32 -16 -17 -28
-34 -26 -36 2 -2 -6 -14 -18 -27 -35 -38 -46 -54 -46 -63 0 -5 -7 -15 -15 -22
-8 -7 -12 -16 -9 -21 3 -5 1 -9 -3 -9 -10 0 -70 -99 -65 -107 2 -3 -1 -9 -6
-12 -15 -9 -62 -108 -55 -115 4 -3 1 -6 -5 -6 -7 0 -12 -6 -13 -12 -1 -26 -45
-103 -59 -104 -8 -1 -23 -2 -32 -2 -32 -3 -68 -50 -68 -88 0 -81 101 -119 156
-59 25 28 34 95 12 95 -6 0 -8 3 -5 6 3 4 0 15 -7 26 -11 16 -7 30 32 111 25
50 45 95 44 100 -1 4 3 7 10 7 6 0 9 3 5 6 -3 3 10 30 29 60 19 30 32 54 29
54 -3 0 3 10 15 22 11 12 20 26 20 31 0 4 6 15 12 22 27 30 38 44 38 50 0 3 4
11 10 18 5 7 31 39 57 72 26 33 52 63 58 67 5 4 7 8 3 8 -5 0 10 18 32 40 22
22 37 40 34 40 -3 0 1 7 10 15 8 8 20 15 27 15 7 0 10 3 7 6 -7 6 137 145 203
195 18 13 41 33 51 43 10 11 18 16 18 11 0 -4 9 2 20 15 11 13 20 19 20 14 0
-5 4 -4 8 2 4 5 24 20 45 33 20 12 37 28 37 33 0 6 3 8 6 5 4 -3 16 0 27 8 12
9 25 11 31 6 26 -21 81 -22 111 -1 17 11 26 20 20 20 -5 0 -4 4 3 9 22 13 18
75 -7 104 -15 19 -59 34 -87 29z"/>
<path d="M9592 8430 c-32 -20 -51 -62 -47 -103 2 -15 0 -25 -4 -22 -5 2 -17
-4 -28 -15 -12 -10 -23 -17 -25 -14 -3 2 -17 -7 -31 -20 -15 -14 -27 -22 -27
-18 -1 4 -10 -4 -20 -17 -11 -13 -20 -19 -20 -15 0 5 -10 -2 -21 -16 -11 -14
-17 -19 -14 -11 8 15 -91 -64 -139 -111 -17 -15 -33 -28 -37 -28 -4 0 -11 -9
-14 -20 -4 -11 -11 -18 -16 -15 -5 4 -9 -1 -9 -9 0 -9 -5 -15 -12 -14 -6 2
-17 -7 -23 -19 -7 -13 -14 -20 -17 -17 -3 3 -16 -8 -27 -25 -12 -17 -34 -43
-49 -59 -37 -38 -70 -78 -114 -137 -20 -27 -41 -54 -45 -60 -21 -24 -135 -214
-133 -221 1 -4 -2 -10 -8 -13 -11 -8 -95 -182 -95 -198 0 -7 -4 -13 -9 -13 -4
0 -8 -6 -8 -14 0 -7 -8 -13 -17 -13 -42 0 -54 -4 -77 -30 -24 -26 -33 -78 -14
-89 4 -3 6 -10 3 -15 -11 -16 57 -49 90 -43 65 11 95 71 64 130 -16 33 -17 43
-6 73 6 20 15 38 19 41 4 3 9 15 10 26 2 10 11 30 20 43 10 13 15 28 12 33 -3
4 0 8 6 8 6 0 8 5 5 10 -3 6 -1 10 4 10 6 0 11 7 11 15 0 8 4 15 9 15 5 0 12
12 15 26 4 14 11 31 17 37 19 22 79 119 79 127 0 5 3 10 8 12 12 5 64 78 55
78 -4 0 3 7 15 16 12 8 22 19 22 23 0 9 56 74 118 137 18 19 30 34 27 34 -4 0
14 17 39 38 25 20 48 45 51 55 4 9 11 17 17 17 5 0 24 14 41 30 18 17 61 52
97 80 36 27 78 62 95 77 16 16 26 22 21 15 -4 -7 18 6 49 27 56 39 58 40 88
25 36 -19 78 -13 106 15 22 22 34 67 23 85 -3 6 -7 17 -9 25 -5 36 -81 55
-121 31z"/>
<path d="M5937 8404 c-1 -1 -42 -5 -92 -8 -49 -3 -101 -8 -115 -11 -13 -2 -42
-7 -65 -11 -22 -3 -58 -10 -80 -15 -22 -5 -53 -12 -70 -15 -16 -3 -35 -10 -41
-15 -6 -5 -13 -7 -16 -4 -12 12 -347 -117 -360 -138 -4 -7 -8 -9 -8 -5 0 9
-112 -51 -121 -65 -3 -5 -8 -8 -10 -6 -6 4 -93 -52 -101 -65 -4 -6 -8 -7 -8
-3 0 5 -13 -2 -29 -15 -16 -12 -41 -32 -57 -43 -67 -47 -183 -151 -183 -164
-1 -8 -4 -11 -7 -8 -8 7 -44 -31 -44 -45 0 -5 -4 -6 -10 -3 -5 3 -10 3 -10 -2
0 -4 -27 -37 -60 -73 -33 -35 -60 -70 -60 -78 0 -7 -4 -11 -9 -7 -5 3 -12 -4
-16 -15 -3 -11 -11 -20 -16 -20 -5 0 -9 -6 -9 -14 0 -8 -3 -16 -7 -18 -11 -4
-65 -78 -59 -78 3 0 -2 -9 -11 -20 -9 -10 -30 -43 -46 -72 -16 -29 -38 -68
-49 -85 -11 -18 -16 -33 -11 -33 4 0 4 -4 -2 -8 -16 -12 -46 -73 -39 -83 3 -5
1 -9 -4 -9 -5 0 -12 -8 -15 -17 -3 -10 -21 -62 -41 -115 -19 -54 -32 -98 -29
-98 3 0 1 -6 -4 -12 -12 -16 -36 -112 -58 -233 -30 -167 -36 -479 -12 -619 4
-19 30 -20 1763 -20 1198 1 1761 -3 1766 -10 4 -5 4 -15 0 -21 -3 -5 -7 -15
-8 -21 -4 -27 -58 -193 -76 -234 -35 -79 -90 -184 -104 -201 -8 -8 -14 -20
-14 -25 0 -5 -13 -25 -30 -44 -16 -19 -29 -40 -30 -46 0 -7 -7 -15 -16 -18 -9
-4 -15 -9 -12 -12 3 -3 -6 -17 -21 -33 -110 -116 -155 -161 -163 -161 -5 0 -6
-4 -3 -10 3 -5 2 -10 -3 -10 -7 0 -86 -58 -144 -105 -9 -7 -19 -11 -22 -8 -3
4 -6 2 -6 -4 0 -6 -13 -16 -30 -23 -16 -7 -30 -16 -30 -21 0 -5 -6 -9 -14 -9
-8 0 -22 -7 -30 -16 -9 -8 -16 -13 -16 -10 0 4 -19 -4 -42 -16 -24 -12 -45
-23 -48 -23 -3 -1 -18 -7 -35 -14 -98 -41 -252 -85 -335 -95 -117 -15 -158
-18 -223 -18 -76 0 -195 8 -237 17 -14 3 -52 10 -85 16 -129 23 -369 118 -457
181 -16 11 -28 16 -28 11 0 -4 -4 -3 -8 2 -4 6 -23 22 -42 35 -19 13 -41 30
-48 37 -7 7 -16 13 -20 13 -4 0 -23 16 -43 35 -20 19 -39 31 -43 28 -3 -4 -6
-2 -6 3 0 5 -35 46 -77 90 -68 70 -100 108 -124 146 -5 8 -526 14 -666 8 -15
0 0 -45 22 -70 7 -8 14 -18 14 -22 2 -18 36 -78 43 -78 5 0 7 -4 4 -9 -3 -5 1
-14 9 -21 8 -7 15 -18 15 -25 0 -6 9 -20 20 -30 11 -10 20 -22 20 -27 0 -8 39
-65 67 -98 7 -8 36 -43 64 -77 28 -35 56 -63 62 -63 5 0 8 -3 4 -6 -7 -7 192
-204 206 -204 3 0 17 -10 31 -23 36 -33 45 -40 142 -104 102 -68 204 -126 204
-117 0 4 8 0 18 -8 35 -30 221 -106 342 -139 210 -58 370 -81 580 -82 106 -1
246 8 295 18 11 3 38 7 60 10 22 3 47 7 55 10 8 2 27 7 43 10 62 12 78 16 102
25 14 5 25 8 25 5 0 -2 37 10 83 26 45 17 92 33 105 36 12 3 25 9 28 14 3 5
14 9 24 9 10 0 26 7 34 16 9 8 16 13 16 10 0 -9 124 55 132 68 4 6 8 8 8 3 0
-7 175 98 196 118 6 5 23 19 39 30 82 58 330 285 312 285 -3 0 9 15 27 33 17
17 42 47 56 66 14 19 30 40 37 46 7 7 9 15 6 19 -4 3 -2 6 4 6 12 0 87 110 76
110 -5 0 0 5 10 11 9 5 17 15 17 20 0 6 9 24 21 40 11 16 17 29 12 29 -4 0 -3
4 4 8 20 12 137 272 159 352 30 110 64 248 69 286 4 27 9 60 11 74 18 110 23
336 10 475 -4 44 -8 86 -8 93 -1 9 -361 12 -1764 12 l-1763 0 4 36 c3 19 10
45 17 57 6 12 11 24 10 27 -2 9 37 129 53 160 8 16 12 30 8 30 -5 0 -3 4 2 8
6 4 23 33 38 64 74 155 258 380 402 494 28 21 53 44 57 49 5 7 8 7 8 0 0 -6 3
-6 8 0 29 42 342 198 421 211 8 2 26 6 40 10 14 4 29 8 34 9 4 2 8 3 10 5 4 3
52 12 147 27 59 10 363 9 417 0 23 -4 55 -10 70 -12 15 -2 46 -9 68 -15 22 -6
48 -13 59 -15 73 -17 279 -104 336 -143 14 -9 27 -17 30 -17 7 0 103 -67 118
-82 7 -7 16 -13 20 -13 4 0 21 -13 38 -30 18 -16 35 -26 38 -23 3 4 6 2 6 -3
0 -5 36 -46 80 -91 44 -45 80 -87 80 -93 0 -6 5 -8 10 -5 6 3 10 -1 10 -9 0
-9 4 -16 9 -16 5 0 12 -8 15 -18 6 -17 27 -18 344 -16 185 1 338 2 340 3 3 1
-39 85 -47 91 -3 3 -7 11 -9 18 -3 17 -52 95 -64 103 -5 3 -9 9 -9 13 1 7 -30
58 -40 66 -3 3 -14 19 -23 37 -9 17 -25 38 -36 46 -11 7 -18 16 -16 18 3 2
-18 29 -45 59 -27 30 -49 58 -49 63 0 4 -4 5 -10 2 -5 -3 -10 0 -10 8 0 11
-87 97 -184 182 -46 40 -106 85 -115 85 -6 0 -11 4 -11 8 0 9 -77 62 -90 62
-5 0 -10 4 -12 9 -1 4 -28 22 -58 38 -98 54 -210 113 -213 112 -1 -1 -20 6
-42 16 -63 27 -205 74 -205 68 0 -3 -6 -1 -12 5 -11 8 -43 17 -183 48 -11 3
-38 7 -60 10 -22 2 -51 7 -64 10 -42 9 -346 25 -354 18z"/>
<path d="M2269 8396 c-2 -2 -34 -7 -71 -10 -37 -4 -77 -9 -90 -11 -31 -6 -167
-34 -197 -40 -35 -8 -214 -66 -226 -73 -5 -4 -15 -7 -22 -8 -6 -1 -50 -21 -97
-43 -47 -23 -89 -41 -92 -40 -4 0 -10 -3 -13 -8 -3 -4 -26 -19 -51 -32 -79
-43 -210 -131 -210 -142 0 -6 -4 -8 -9 -4 -5 3 -17 -5 -25 -17 -9 -12 -16 -18
-16 -13 0 6 -11 -2 -24 -17 -13 -16 -27 -28 -32 -28 -5 0 -52 -42 -104 -93
-97 -95 -154 -157 -145 -157 2 0 -8 -13 -23 -28 -40 -40 -127 -163 -124 -173
1 -5 -2 -9 -8 -9 -9 0 -43 -56 -38 -64 2 -2 -5 -13 -15 -24 -23 -25 -79 -132
-69 -132 4 0 3 -4 -3 -8 -18 -13 -46 -72 -40 -82 3 -6 2 -10 -2 -10 -9 0 -49
-99 -45 -112 1 -5 -3 -8 -9 -8 -6 0 -9 -6 -6 -14 3 -7 2 -17 -3 -22 -8 -8 -57
-182 -65 -229 -4 -29 -16 -94 -21 -119 -25 -127 -24 -501 1 -616 4 -14 8 -39
11 -57 15 -106 72 -301 127 -433 37 -90 86 -192 96 -200 3 -3 15 -22 25 -42
11 -21 23 -38 28 -38 5 0 7 -4 3 -9 -3 -5 2 -16 10 -24 8 -9 15 -20 15 -25 0
-5 9 -17 20 -27 11 -10 20 -22 20 -27 0 -5 4 -14 10 -21 5 -7 33 -41 62 -77
98 -121 184 -211 192 -202 3 3 6 -2 6 -11 0 -9 4 -17 9 -17 5 0 27 -17 49 -39
23 -21 67 -58 99 -82 32 -24 60 -47 61 -51 2 -5 8 -8 14 -8 6 0 28 -14 49 -31
21 -17 39 -27 39 -22 0 4 4 4 8 -2 19 -27 146 -98 156 -88 3 4 6 2 6 -4 0 -11
59 -40 73 -35 4 1 7 -2 7 -6 0 -6 50 -30 80 -37 3 -1 16 -6 30 -12 14 -6 43
-18 64 -27 22 -9 41 -14 44 -11 3 3 10 0 17 -5 6 -5 20 -11 31 -13 10 -1 25
-6 32 -10 6 -5 16 -6 21 -2 5 3 12 1 16 -5 4 -6 10 -8 15 -5 5 3 11 1 15 -5 4
-6 10 -8 15 -5 5 3 19 1 32 -4 21 -8 87 -20 148 -26 14 -2 48 -7 75 -11 64
-10 371 -11 450 -2 76 9 208 32 225 38 3 1 8 2 11 2 4 -1 22 3 40 9 19 6 41
12 50 14 45 10 163 49 229 76 112 46 338 165 360 188 3 4 34 26 70 50 36 25
67 48 68 53 2 4 11 8 19 8 9 0 13 3 10 6 -3 4 13 20 36 37 23 17 84 73 135
124 82 82 91 95 78 108 -8 8 -17 15 -19 15 -3 0 -22 17 -44 38 -55 52 -87 79
-95 81 -4 1 -27 21 -51 44 -103 98 -126 117 -136 117 -6 0 -11 4 -11 9 0 17
-73 67 -78 53 -2 -6 -8 -10 -13 -6 -5 3 -9 1 -9 -3 0 -5 -22 -32 -50 -60 -27
-28 -50 -48 -50 -45 0 3 -6 -1 -12 -9 -7 -9 -38 -35 -68 -60 -30 -24 -57 -47
-58 -52 -2 -4 -8 -5 -13 -1 -5 3 -12 -2 -15 -10 -3 -9 -10 -13 -15 -10 -5 3
-12 -2 -15 -10 -3 -9 -9 -14 -14 -11 -4 2 -17 -5 -28 -16 -12 -11 -22 -17 -22
-14 0 7 -62 -26 -71 -38 -3 -5 -8 -8 -10 -8 -13 2 -49 -13 -49 -20 0 -5 -3 -8
-7 -7 -8 3 -85 -23 -128 -42 -21 -10 -132 -39 -175 -46 -14 -3 -32 -7 -40 -9
-80 -23 -409 -24 -500 -2 -8 2 -37 7 -65 12 -27 4 -56 12 -62 17 -7 6 -13 8
-13 5 0 -3 -30 5 -67 17 -38 13 -72 24 -78 26 -53 16 -218 98 -255 127 -8 6
-21 13 -29 15 -7 2 -24 12 -36 23 -13 11 -44 36 -70 55 -26 19 -58 45 -70 57
-13 12 -26 19 -29 16 -3 -4 -6 -1 -6 6 0 14 -68 81 -83 81 -5 0 -8 3 -4 6 3 4
0 12 -6 19 -7 7 -29 32 -48 55 -18 24 -42 51 -51 62 -10 10 -18 21 -18 26 0 4
-7 15 -15 25 -8 9 -15 22 -15 27 0 6 -7 13 -15 16 -8 4 -13 10 -10 14 3 4 -4
18 -14 31 -25 33 -126 259 -115 259 3 0 0 9 -6 19 -10 21 -38 119 -45 161 -2
14 -7 35 -9 48 -20 92 -25 329 -10 432 4 30 8 65 8 78 1 12 3 22 6 22 3 0 7
12 8 28 2 22 9 51 37 142 1 3 5 19 10 35 9 34 45 116 80 188 13 26 21 47 17
47 -4 0 1 5 10 11 10 5 18 16 18 23 0 8 7 19 15 26 8 7 12 16 9 21 -3 5 -2 9
3 9 4 0 19 17 33 38 14 20 29 40 33 43 5 3 9 10 10 15 2 13 22 36 102 120 39
41 69 74 66 74 -6 0 58 48 165 125 51 36 97 65 103 65 6 0 11 4 11 8 0 7 39
31 60 37 3 1 32 14 64 28 63 29 225 86 264 93 34 6 64 12 92 19 103 23 481 24
519 1 3 -2 24 -7 46 -11 22 -4 45 -8 50 -9 6 -2 24 -6 40 -10 223 -57 471
-201 660 -383 10 -9 15 -6 25 13 7 13 15 22 18 20 5 -6 52 44 52 56 0 5 3 7 8
5 9 -4 52 40 44 47 -3 3 -1 6 5 6 14 0 83 69 83 83 0 6 3 7 7 4 3 -4 15 5 25
20 10 16 18 24 18 20 0 -4 11 4 25 19 14 15 25 31 25 36 0 5 3 7 8 5 9 -4 52
40 45 46 -2 3 5 8 17 12 21 7 20 9 -22 49 -113 105 -201 176 -217 176 -5 0
-11 3 -13 8 -4 10 -78 64 -78 58 0 -3 -9 2 -20 12 -40 34 -287 162 -313 162
-7 0 -17 4 -22 8 -17 15 -157 62 -192 64 -7 1 -13 5 -13 10 0 4 -3 7 -7 6 -5
-1 -39 5 -78 15 -38 9 -87 19 -109 22 -21 3 -41 7 -45 10 -20 12 -480 32 -492
21z"/>
<path d="M10578 8395 c-2 -2 -26 -6 -53 -10 -69 -8 -168 -25 -230 -40 -5 -1
-29 -6 -52 -10 -24 -4 -43 -12 -43 -17 0 -5 -4 -7 -8 -4 -7 4 -77 -16 -142
-40 -8 -3 -15 -4 -15 -3 0 1 -11 -4 -25 -11 -14 -8 -30 -15 -36 -16 -20 -3
-189 -87 -195 -96 -3 -5 -8 -8 -10 -6 -7 6 -171 -95 -176 -108 -3 -8 -9 -12
-13 -9 -10 6 -155 -108 -222 -176 -27 -26 -48 -46 -48 -44 0 2 -11 -7 -25 -21
-14 -14 -25 -26 -25 -28 0 -2 -19 -23 -43 -47 -23 -24 -56 -62 -72 -84 -17
-22 -35 -46 -42 -53 -16 -16 -113 -164 -147 -222 -32 -57 -97 -191 -100 -208
-1 -7 -8 -18 -14 -24 -7 -7 -12 -19 -12 -28 0 -8 -7 -28 -15 -43 -19 -37 -81
-262 -95 -347 -6 -36 -13 -76 -16 -90 -36 -208 -18 -553 42 -795 15 -61 41
-147 51 -175 4 -8 7 -17 8 -20 1 -3 7 -18 13 -33 7 -16 12 -30 12 -31 0 -2 8
-21 17 -42 9 -22 17 -41 18 -44 5 -27 113 -221 129 -232 7 -5 7 -8 1 -8 -5 0
-3 -6 6 -13 9 -7 17 -16 18 -22 1 -11 94 -143 137 -195 57 -69 260 -266 324
-315 36 -27 67 -53 68 -57 2 -4 9 -8 16 -8 7 0 22 -9 34 -20 11 -11 36 -28 55
-39 71 -40 82 -46 95 -59 7 -7 17 -10 22 -7 5 3 10 1 12 -3 3 -8 172 -92 193
-96 5 -2 28 -10 50 -20 44 -19 265 -85 305 -91 26 -3 76 -12 120 -20 108 -20
437 -27 545 -11 28 3 67 9 87 11 45 6 217 43 238 52 8 3 21 5 28 4 6 -1 12 2
12 6 0 4 10 9 23 10 12 0 40 9 62 19 22 10 45 18 50 19 13 1 36 11 100 40 28
12 60 25 73 29 12 4 22 12 22 17 0 5 3 8 8 8 13 -3 72 23 72 31 0 5 16 14 35
21 19 7 35 17 35 21 0 4 7 8 15 8 9 0 18 7 21 15 4 8 9 13 14 10 4 -2 16 5 28
15 12 11 26 20 32 20 5 0 10 5 10 10 0 6 5 10 11 10 17 0 153 115 263 222
l100 97 -25 23 c-14 13 -55 48 -90 78 -35 30 -69 59 -75 65 -7 5 -38 33 -70
61 -33 29 -77 68 -99 88 -22 19 -46 36 -53 36 -7 0 -11 4 -8 8 2 4 -4 13 -15
20 -15 10 -19 10 -19 -1 0 -6 -9 -18 -20 -25 -12 -7 -18 -17 -15 -22 3 -6 2
-10 -3 -10 -9 0 -22 -11 -109 -92 -24 -21 -43 -36 -43 -32 0 4 -6 1 -12 -7
-44 -54 -291 -189 -423 -232 -183 -60 -307 -80 -495 -81 -165 0 -337 26 -450
69 -19 7 -39 14 -45 15 -50 13 -227 97 -277 132 -16 11 -28 17 -28 14 0 -3 -8
2 -18 12 -11 9 -46 37 -80 61 -128 91 -323 310 -387 434 -11 20 -24 37 -29 37
-5 0 -6 3 -3 6 4 4 -3 20 -14 35 -11 16 -18 29 -15 29 3 0 -5 21 -18 48 -13
26 -34 79 -46 117 -13 39 -25 77 -28 85 -9 27 -11 35 -17 65 -3 17 -8 37 -10
45 -2 8 -7 37 -11 65 -3 27 -8 61 -10 75 -4 33 -4 248 0 280 18 120 75 321
106 370 13 21 39 79 39 87 -1 3 3 9 8 12 5 3 21 27 36 54 16 26 50 76 77 112
27 36 47 65 45 65 -2 0 9 13 23 28 15 15 50 52 78 82 61 66 133 132 194 180
25 19 47 38 48 42 2 5 10 8 18 8 9 0 13 4 10 8 -2 4 7 13 22 20 15 6 39 23 55
37 15 14 27 23 27 20 0 -4 13 3 29 14 15 11 40 25 55 31 14 5 26 15 26 21 0 7
2 10 5 7 4 -3 39 11 80 32 40 21 76 36 79 33 3 -4 6 -1 6 6 0 7 4 10 9 6 5 -3
12 -1 16 5 3 5 15 10 26 10 10 0 19 5 19 11 0 5 4 8 9 5 4 -3 31 3 60 13 28
11 51 18 51 16 0 -2 14 0 32 5 130 38 353 31 561 -16 4 -1 8 -2 10 -4 2 -2 18
-6 57 -14 41 -9 215 -78 221 -88 3 -6 10 -10 15 -10 11 -1 56 -20 69 -31 19
-14 160 -103 167 -105 4 -2 18 -12 31 -25 63 -60 107 -97 117 -97 6 0 8 -5 4
-11 -4 -7 1 -9 12 -7 11 2 18 10 17 16 -2 7 1 11 5 9 12 -3 98 83 95 95 -2 4
3 7 10 5 6 -1 11 4 9 11 -1 8 1 11 6 8 10 -6 118 104 115 116 -2 4 1 7 5 5 12
-3 98 84 94 95 -1 5 2 7 7 4 5 -3 15 2 22 11 10 12 10 14 2 9 -7 -4 -13 -5
-13 -1 0 3 9 9 21 13 18 7 16 12 -33 57 -90 84 -128 116 -128 109 0 -4 -8 3
-19 14 -10 12 -21 19 -25 15 -3 -3 -6 -1 -6 5 0 7 -24 28 -54 47 -30 19 -58
39 -61 45 -4 6 -11 8 -16 5 -5 -4 -9 -2 -9 3 0 8 -25 23 -55 33 -5 1 -19 11
-29 21 -10 9 -23 15 -28 12 -4 -3 -8 -2 -8 3 0 9 -121 69 -132 65 -5 -1 -8 3
-8 8 0 5 -3 9 -7 8 -5 -1 -25 6 -45 15 -62 26 -240 85 -275 90 -17 3 -36 8
-41 11 -5 3 -27 8 -48 11 -22 4 -50 8 -64 11 -14 3 -38 7 -55 9 -16 2 -30 4
-30 5 0 9 -459 23 -467 15z m1432 -829 c0 -2 -8 -10 -17 -17 -16 -13 -17 -12
-4 4 13 16 21 21 21 13z"/>
<path d="M4328 8002 c-16 -2 -28 -8 -28 -13 0 -6 -4 -8 -9 -5 -25 16 -52 -76
-33 -111 9 -15 0 -31 -48 -88 -33 -39 -59 -75 -60 -81 0 -7 -7 -15 -16 -18 -9
-4 -14 -9 -11 -12 3 -3 -3 -14 -12 -23 -22 -22 -131 -197 -131 -211 0 -5 -5
-10 -10 -10 -6 0 -9 -3 -8 -7 1 -5 -18 -49 -43 -98 -24 -50 -52 -108 -61 -130
-18 -43 -81 -230 -93 -280 -5 -16 -9 -34 -11 -40 -2 -5 -6 -22 -9 -37 -11 -54
-24 -78 -43 -78 -29 0 -69 -36 -75 -67 -17 -87 83 -143 152 -86 26 22 35 87
15 107 -8 8 -14 19 -14 25 0 6 -4 11 -10 11 -5 0 -8 15 -6 33 3 17 5 32 6 32
1 0 3 9 5 20 9 47 81 277 100 320 8 17 39 83 69 148 30 64 54 119 53 120 -1 1
4 9 11 17 27 32 60 89 54 94 -3 3 0 6 7 6 7 0 9 5 6 10 -3 6 -2 10 4 10 6 0
17 12 25 28 12 24 25 41 66 90 6 6 8 12 5 12 -3 0 3 8 13 18 32 34 62 72 56
72 -3 0 7 11 21 25 22 20 34 23 66 19 34 -5 43 -2 70 26 28 27 31 36 26 72 -5
40 -41 83 -58 72 -4 -2 -9 -1 -11 3 -1 5 -15 7 -30 5z"/>
<path d="M5908 7584 c-3 -2 -73 -12 -124 -18 -17 -2 -41 -7 -55 -11 -116 -33
-198 -63 -274 -101 -122 -61 -138 -70 -152 -90 -7 -10 -13 -14 -13 -10 0 11
-52 -28 -109 -83 -27 -27 -52 -46 -55 -44 -2 3 -12 -7 -21 -21 -13 -20 -21
-23 -38 -17 -28 11 -63 5 -90 -14 -12 -8 -18 -15 -14 -15 4 0 1 -10 -7 -22
-33 -52 23 -131 86 -122 18 2 34 8 36 14 2 6 8 8 12 5 5 -3 15 7 23 22 15 29
16 65 3 94 -5 11 4 25 28 47 19 16 32 33 29 36 -4 3 1 6 10 6 8 0 24 10 34 23
10 12 42 37 71 56 28 18 52 37 52 43 0 5 5 6 10 3 6 -3 10 -1 10 4 0 6 6 11
14 11 7 0 25 9 39 20 14 11 32 20 41 20 9 0 16 4 16 8 0 8 60 33 89 38 8 2 17
6 20 11 5 7 12 10 46 17 6 2 30 9 55 16 25 7 49 13 54 11 4 -1 14 3 20 9 7 5
15 8 17 6 2 -3 33 1 69 8 68 12 282 13 360 1 69 -10 73 -11 97 -19 31 -10 66
-18 86 -19 9 -1 17 -5 17 -9 0 -4 3 -7 8 -7 4 1 9 0 12 -1 3 -1 12 -3 20 -5 8
-1 45 -17 83 -34 37 -17 72 -31 77 -31 6 0 10 -5 10 -11 0 -5 5 -7 10 -4 6 3
10 2 10 -3 0 -8 31 -26 52 -31 4 -1 19 -12 33 -25 18 -17 25 -34 25 -60 0 -71
68 -109 136 -75 50 25 54 108 7 147 -22 18 -36 22 -67 18 -21 -2 -42 -10 -46
-16 -9 -15 -21 -15 -30 0 -12 19 -200 127 -200 115 0 -3 -10 1 -22 9 -26 16
-96 41 -175 62 -50 13 -76 18 -148 30 -31 6 -283 13 -287 8z"/>
<path d="M1513 7268 c-26 -27 -31 -54 -20 -111 2 -10 -11 -34 -30 -54 -19 -19
-32 -37 -30 -40 3 -2 -9 -18 -24 -34 -16 -17 -27 -35 -24 -39 3 -5 2 -10 -2
-12 -9 -3 -53 -64 -53 -72 0 -2 -13 -33 -29 -68 -16 -35 -31 -72 -33 -83 -1
-11 -6 -22 -9 -25 -7 -6 -44 -143 -55 -205 -10 -53 -11 -361 -1 -405 4 -19 9
-44 11 -55 16 -105 101 -332 128 -343 5 -2 6 -8 3 -12 -3 -5 3 -18 14 -29 11
-11 17 -22 14 -25 -4 -3 -1 -6 5 -6 7 0 12 -7 12 -15 0 -8 9 -24 20 -35 11
-11 20 -24 20 -30 0 -5 5 -10 10 -10 6 0 10 -7 10 -16 0 -8 5 -12 10 -9 6 3
10 1 10 -5 0 -6 7 -18 16 -27 9 -10 12 -19 6 -25 -13 -13 -3 -80 15 -100 21
-23 78 -33 108 -20 31 14 57 65 51 99 -3 16 -18 39 -33 52 -22 19 -35 22 -70
18 -40 -4 -44 -2 -70 32 -15 20 -39 47 -53 60 -14 13 -18 21 -10 17 8 -4 6 0
-4 8 -11 9 -17 16 -13 16 4 0 -9 25 -28 55 -19 30 -35 59 -35 65 0 5 -5 10
-11 10 -5 0 -8 4 -4 9 3 5 0 15 -7 23 -7 7 -14 21 -16 30 -1 10 -10 34 -19 55
-17 39 -18 43 -27 78 -2 11 -10 43 -16 70 -21 86 -25 126 -25 260 0 158 9 217
50 353 12 42 24 84 26 92 2 8 6 17 9 20 10 9 65 125 62 129 -2 2 0 7 5 10 15
11 85 113 71 105 -7 -4 9 14 34 41 26 27 45 51 43 54 -2 3 16 5 39 3 96 -8
137 95 63 160 -30 26 -81 20 -114 -14z"/>
<path d="M9872 7288 c-7 -7 -12 -8 -12 -4 0 5 -9 -3 -20 -16 -20 -26 -26 -68
-15 -103 4 -13 -1 -29 -16 -45 -54 -61 -63 -73 -49 -65 8 5 4 -3 -10 -18 -14
-14 -32 -38 -40 -54 -8 -15 -17 -30 -20 -33 -3 -3 -14 -24 -25 -47 -11 -24
-24 -43 -29 -43 -4 0 -6 -7 -2 -15 3 -8 1 -15 -3 -15 -11 0 -78 -207 -86 -265
-4 -22 -10 -61 -14 -87 -15 -93 -2 -389 19 -429 5 -9 7 -18 5 -21 -6 -5 38
-143 61 -196 44 -97 58 -127 63 -132 3 -3 15 -21 25 -40 11 -19 24 -39 28 -45
80 -101 95 -129 87 -162 -6 -30 -3 -39 23 -69 39 -44 83 -46 125 -6 29 26 31
36 25 102 -3 27 -60 53 -103 47 -36 -5 -40 -3 -77 47 -58 74 -120 173 -134
212 -7 19 -16 34 -22 34 -5 0 -7 3 -3 6 3 4 -1 20 -9 37 -14 26 -41 105 -45
132 -1 6 -5 21 -10 34 -20 52 -38 219 -34 320 3 103 6 129 21 201 4 19 7 43 8
53 0 9 5 17 10 17 5 0 7 3 4 6 -4 3 5 36 18 72 13 37 24 69 25 72 1 10 64 135
70 140 3 3 14 21 24 40 18 35 67 100 113 152 19 21 29 25 46 18 32 -12 82 15
92 48 16 58 14 74 -18 103 -32 31 -75 38 -96 17z"/>
<path d="M120 6848 c0 -5 -4 -7 -9 -4 -14 9 -42 -29 -48 -67 -5 -32 -1 -41 29
-71 20 -20 34 -37 32 -39 -9 -8 -26 -232 -26 -342 -1 -116 15 -320 29 -375 3
-14 7 -36 8 -50 2 -14 6 -36 9 -50 12 -51 18 -80 17 -85 0 -2 6 -23 14 -45 8
-22 12 -40 10 -40 -2 0 3 -16 11 -35 8 -19 14 -37 13 -40 -1 -5 4 -19 27 -80
4 -11 8 -22 8 -25 11 -51 167 -366 193 -387 10 -8 12 -11 4 -8 -9 5 -8 -1 4
-19 10 -14 22 -26 27 -26 5 0 7 -4 4 -9 -3 -5 1 -12 9 -15 8 -3 14 -9 13 -14
-4 -14 116 -174 179 -240 18 -19 33 -36 33 -38 0 -10 120 -124 130 -124 5 0
10 -7 10 -16 0 -8 4 -13 8 -10 5 3 16 -6 26 -19 10 -14 23 -22 28 -19 4 3 7 0
6 -8 -2 -7 3 -12 10 -10 10 2 11 -4 7 -19 -12 -36 -13 -53 -5 -64 5 -5 9 -14
10 -20 6 -25 13 -34 41 -45 55 -23 115 12 124 74 4 23 2 36 -5 36 -6 0 -9 4
-6 9 8 13 -38 51 -65 52 -13 1 -35 -1 -49 -5 -20 -5 -34 2 -75 40 -27 25 -54
49 -60 52 -5 4 -36 35 -67 68 -31 34 -60 59 -63 56 -3 -3 -5 0 -5 7 0 14 -96
134 -111 139 -5 2 -9 8 -9 14 0 6 -11 24 -25 42 -36 45 -37 46 -75 106 -19 30
-38 57 -42 58 -5 2 -6 8 -2 13 3 5 0 9 -5 9 -6 0 -11 7 -11 15 0 8 -5 15 -11
15 -5 0 -8 4 -4 9 3 5 -2 16 -10 24 -8 9 -15 18 -15 20 0 3 -23 52 -50 110
-28 58 -50 108 -50 111 0 2 -4 15 -9 28 -5 13 -9 26 -10 31 0 4 -8 21 -16 37
-8 16 -15 32 -15 35 0 3 0 6 -1 8 0 1 -2 13 -5 26 -2 14 -9 30 -14 36 -5 7 -7
15 -4 18 3 3 2 12 -2 19 -5 7 -9 18 -10 23 -1 6 -7 28 -12 50 -6 22 -14 56
-17 75 -3 19 -8 49 -12 65 -30 146 -45 452 -29 605 17 156 18 160 42 160 8 0
14 5 14 11 0 5 4 8 8 5 23 -14 56 64 39 92 -5 6 -5 12 -1 12 4 0 -1 7 -12 16
-10 8 -13 13 -6 9 6 -3 12 -4 12 -1 0 3 -12 12 -27 20 -32 15 -83 18 -83 4z"/>
<path d="M8439 6845 c-49 -26 -59 -85 -23 -133 14 -18 29 -30 33 -27 9 5 8 -8
-5 -95 -10 -66 -11 -466 -1 -530 3 -25 9 -63 12 -85 2 -22 10 -65 16 -95 5
-30 12 -66 15 -80 2 -14 7 -32 10 -40 3 -8 8 -28 11 -45 3 -16 9 -38 15 -48 5
-10 12 -29 14 -43 2 -13 9 -36 16 -51 6 -16 12 -35 14 -43 9 -42 110 -266 124
-275 6 -4 8 -11 5 -16 -4 -5 -1 -9 4 -9 6 0 10 -3 9 -7 -4 -16 135 -244 153
-251 5 -2 9 -8 9 -13 0 -5 6 -17 14 -26 8 -10 41 -52 74 -93 33 -41 72 -85 86
-97 14 -13 26 -27 26 -33 0 -5 6 -10 13 -10 8 0 19 -12 25 -26 7 -14 16 -23
21 -19 5 3 12 -4 16 -15 3 -11 10 -20 14 -20 3 0 28 -20 53 -44 26 -24 49 -41
53 -38 4 5 1 -32 -5 -48 -7 -18 5 -58 22 -77 57 -62 166 -15 154 67 -7 48 -20
64 -58 75 -5 2 -10 4 -13 5 -13 7 -31 5 -42 -3 -7 -5 -21 -6 -33 -2 -28 9
-343 325 -324 325 3 0 -6 11 -18 25 -51 57 -56 64 -51 69 3 3 -2 8 -11 12 -9
3 -16 12 -16 20 0 8 -4 14 -10 14 -5 0 -10 6 -10 13 0 7 -8 22 -17 33 -10 10
-27 36 -38 57 -11 20 -23 37 -28 37 -4 0 -6 4 -2 9 3 5 1 12 -4 15 -5 3 -26
41 -47 84 -20 42 -40 79 -43 82 -3 3 -7 12 -9 20 -2 8 -10 28 -18 44 -8 16
-14 35 -14 43 0 7 -5 13 -12 13 -6 0 -9 3 -6 6 4 3 -7 41 -23 84 -27 76 -65
208 -75 260 -2 14 -8 45 -14 70 -29 141 -34 208 -34 430 0 193 6 308 19 343 4
9 15 17 24 17 29 0 63 45 64 83 1 37 -28 91 -43 82 -6 -4 -10 -2 -10 2 0 15
-53 13 -81 -2z"/>
<path d="M8283 6615 c-31 -13 -44 -32 -50 -76 -4 -29 41 -94 58 -83 5 3 9 0 9
-6 0 -6 4 -9 9 -6 5 3 11 0 13 -7 10 -28 -4 -368 -17 -437 -8 -40 -18 -113
-19 -132 0 -10 -3 -18 -6 -18 -3 0 -6 -10 -7 -22 -1 -24 -47 -195 -54 -202 -2
-2 -15 -6 -29 -8 -34 -4 -58 -26 -70 -64 -20 -59 26 -118 91 -116 37 1 58 17
75 59 15 35 5 79 -22 100 -13 9 -13 17 -3 55 7 23 14 48 15 53 1 6 3 12 4 15
1 3 3 12 5 20 1 8 8 33 13 55 6 22 14 55 17 73 3 17 7 45 10 60 18 108 28 232
29 380 1 142 2 144 26 158 14 7 22 13 17 14 -4 0 -1 10 8 23 11 17 12 31 5 57
-15 56 -69 79 -127 55z"/>
<path d="M5099 5517 c-95 -35 -57 -188 43 -172 28 4 41 1 55 -14 52 -54 283
-194 320 -194 7 0 13 -4 13 -7 0 -4 37 -19 83 -33 117 -36 128 -39 227 -55 53
-8 322 -8 365 1 17 3 44 9 60 12 17 4 39 8 50 10 11 2 27 6 35 8 8 2 36 10 63
17 26 7 47 16 47 20 0 3 7 7 15 7 15 0 96 33 105 43 9 10 85 38 105 38 38 1
75 22 87 49 6 16 11 31 10 34 -1 4 -3 18 -6 33 -7 38 -44 66 -86 64 -68 -3
-108 -75 -76 -137 16 -30 16 -31 -9 -37 -14 -3 -25 -10 -25 -15 0 -5 -3 -8 -7
-7 -5 1 -21 -5 -38 -12 -16 -7 -34 -15 -40 -16 -5 -2 -48 -17 -95 -33 -47 -16
-101 -31 -120 -34 -19 -3 -48 -9 -65 -13 -38 -10 -315 -11 -375 -2 -94 14
-282 69 -307 90 -7 5 -16 7 -21 4 -6 -3 -15 1 -22 9 -7 8 -16 12 -21 9 -5 -3
-9 0 -9 5 0 6 -4 11 -9 11 -14 0 -121 64 -150 89 -13 12 -28 21 -32 21 -4 0
-21 14 -39 31 -22 22 -28 35 -21 43 17 21 16 72 -2 100 -10 14 -19 26 -20 26
-1 0 -16 4 -32 8 -17 5 -41 4 -56 -1z"/>
<path d="M8007 5275 c-9 -9 -17 -13 -17 -8 0 4 -7 -5 -15 -21 -18 -34 -14 -80
10 -106 11 -12 13 -20 5 -25 -5 -3 -8 -11 -5 -16 4 -5 2 -9 -3 -9 -5 0 -17
-16 -28 -35 -10 -19 -21 -35 -24 -35 -3 0 -14 -15 -24 -32 -11 -18 -37 -54
-59 -80 -21 -27 -36 -48 -32 -48 4 0 -8 -12 -25 -26 -17 -15 -29 -28 -27 -30
6 -7 -207 -221 -215 -217 -5 2 -8 -3 -8 -12 0 -9 -4 -14 -9 -10 -5 3 -18 -6
-29 -20 -11 -14 -23 -25 -27 -25 -7 0 -21 -12 -75 -62 -10 -9 -21 -14 -24 -10
-3 3 -6 0 -6 -6 0 -7 -6 -12 -14 -12 -8 0 -16 -4 -18 -8 -1 -5 -48 -36 -103
-70 -55 -34 -104 -65 -110 -70 -5 -4 -14 -9 -20 -10 -29 -6 -45 -14 -45 -23 0
-6 -4 -8 -9 -4 -5 3 -16 -2 -25 -10 -8 -9 -18 -16 -21 -15 -3 0 -22 -7 -43
-16 -61 -26 -148 -59 -164 -63 -4 -1 -24 -9 -45 -18 -21 -8 -49 -17 -62 -20
-14 -2 -29 -7 -35 -11 -6 -3 -17 -7 -25 -9 -7 -1 -34 -7 -60 -13 -63 -15 -91
-20 -126 -26 -16 -3 -52 -9 -80 -14 -157 -30 -534 -32 -665 -5 -14 3 -41 7
-60 10 -39 5 -44 6 -145 30 -79 19 -98 23 -106 24 -3 1 -13 18 -22 39 -33 76
-123 80 -162 8 -48 -90 75 -177 142 -101 18 21 28 24 55 19 44 -8 62 -12 66
-14 2 -3 4 -3 57 -14 50 -11 70 -14 120 -21 22 -4 46 -8 53 -11 50 -16 409
-24 537 -11 146 15 207 25 315 52 36 9 74 18 85 19 11 2 20 4 20 5 0 3 12 6
54 15 12 3 30 11 39 18 8 7 18 12 21 11 11 -4 56 9 79 23 12 8 22 12 22 10 0
-9 259 110 270 123 3 4 16 12 30 18 61 30 109 61 103 67 -3 3 3 6 15 6 12 0
22 3 22 8 0 4 25 22 55 40 30 18 61 43 70 55 8 12 17 20 19 17 13 -19 411 377
406 405 0 3 9 15 22 25 13 11 20 19 16 20 -5 0 0 9 10 19 27 31 35 42 77 108
36 56 44 63 73 63 17 0 32 5 32 10 0 6 7 10 15 10 23 0 44 57 35 92 -12 40
-35 59 -78 65 -28 4 -43 0 -55 -12z"/>
<path d="M4115 4833 c-49 -12 -79 -64 -65 -113 8 -29 5 -34 -38 -75 -26 -25
-50 -45 -54 -45 -5 0 -8 -7 -8 -17 0 -9 -3 -13 -6 -10 -4 4 -14 -1 -23 -11 -9
-10 -37 -33 -63 -52 -27 -18 -48 -37 -48 -42 0 -4 -6 -8 -14 -8 -7 0 -25 -11
-40 -25 -14 -13 -29 -24 -32 -24 -3 1 -17 -8 -30 -20 -13 -11 -26 -21 -29 -20
-9 0 -129 -74 -136 -84 -3 -5 -9 -8 -13 -8 -3 1 -22 -5 -41 -13 -20 -9 -38
-15 -42 -15 -3 1 -9 -3 -12 -8 -6 -8 -57 -34 -76 -39 -5 -1 -32 -12 -60 -25
-27 -12 -54 -23 -60 -25 -5 -1 -55 -17 -110 -34 -55 -17 -111 -34 -124 -36
-12 -3 -52 -11 -87 -20 -35 -8 -85 -17 -111 -20 -27 -3 -55 -7 -63 -9 -59 -17
-357 -24 -495 -12 -76 7 -101 10 -170 22 -16 3 -46 8 -65 11 -19 3 -71 14
-115 25 -44 11 -87 22 -95 24 -8 2 -35 11 -60 20 -25 9 -54 19 -65 22 -11 2
-27 7 -35 11 -8 3 -17 6 -20 6 -3 1 -14 7 -25 13 -11 6 -24 12 -30 13 -15 3
-115 48 -155 70 -24 13 -35 27 -37 44 -7 96 -128 125 -168 40 -18 -38 -13 -85
11 -105 8 -6 14 -8 14 -3 0 5 4 3 8 -4 13 -19 56 -24 86 -9 14 8 23 17 19 20
-14 15 15 5 107 -38 53 -24 103 -45 111 -47 8 -2 16 -5 19 -8 6 -7 184 -68
218 -75 54 -12 63 -14 70 -19 5 -3 24 -8 43 -11 19 -3 50 -10 69 -14 19 -5 42
-9 50 -10 24 -1 75 -9 75 -11 0 -2 24 -5 135 -15 150 -14 384 -9 505 10 17 2
46 7 65 9 19 3 67 12 105 21 39 8 82 17 98 20 15 2 32 7 37 10 6 3 19 8 30 11
11 2 30 7 43 10 12 3 28 6 35 6 6 1 12 5 12 10 0 4 3 7 8 6 8 -2 73 18 122 39
19 9 51 22 70 30 81 35 202 96 225 115 14 11 25 17 25 13 0 -7 92 54 101 68 3
5 9 8 13 8 12 -2 86 52 86 62 0 6 3 7 6 4 7 -7 123 86 209 167 44 41 55 46 90
44 22 -1 50 1 62 5 25 9 54 65 48 95 -5 29 -24 62 -35 63 -6 1 -14 2 -19 3 -5
0 -13 4 -17 9 -4 4 -10 6 -13 6 -3 -1 -15 -4 -26 -6z"/>
<path d="M12440 4833 c-42 -17 -77 -84 -59 -115 9 -17 -2 -60 -15 -58 -4 0
-24 -15 -44 -34 -20 -20 -61 -55 -89 -78 -29 -23 -53 -45 -53 -50 0 -4 -7 -8
-15 -8 -8 0 -15 -3 -15 -7 0 -5 -27 -25 -60 -47 -33 -21 -60 -43 -60 -49 0 -6
-3 -8 -6 -4 -4 3 -27 -8 -53 -26 -25 -17 -49 -32 -53 -32 -4 0 -16 -8 -27 -17
-11 -9 -22 -14 -25 -11 -3 4 -6 1 -6 -5 0 -7 -3 -11 -7 -10 -8 2 -123 -52
-133 -62 -3 -3 -9 -5 -15 -6 -5 0 -32 -10 -60 -23 -27 -13 -54 -24 -60 -25 -5
-2 -23 -9 -40 -16 -16 -7 -34 -14 -40 -14 -5 -1 -44 -12 -85 -25 -41 -14 -82
-25 -90 -26 -8 -1 -37 -7 -65 -13 -27 -7 -61 -14 -75 -16 -14 -3 -36 -7 -50
-10 -177 -37 -539 -38 -750 -1 -35 6 -190 41 -222 50 -10 3 -28 7 -40 10 -12
2 -44 12 -72 22 -28 9 -53 18 -56 18 -16 4 -64 24 -142 59 -32 14 -58 22 -58
19 0 -3 -6 0 -14 6 -8 7 -31 20 -52 30 -31 15 -38 24 -40 51 -5 64 -72 102
-131 73 -28 -13 -37 -27 -49 -73 -10 -42 53 -105 96 -96 25 5 55 19 61 29 4 5
34 -5 67 -21 33 -17 63 -28 66 -24 3 3 6 0 6 -6 0 -7 6 -12 13 -12 8 0 27 -6
43 -14 16 -8 36 -16 44 -18 8 -2 17 -6 20 -9 4 -5 139 -51 163 -55 4 -1 8 -2
10 -4 1 -1 9 -3 17 -5 35 -9 61 -15 78 -20 241 -66 634 -88 877 -49 17 3 44 7
60 9 37 5 160 30 175 35 3 1 8 2 11 2 3 -1 35 8 70 19 35 11 75 22 89 25 14 2
34 8 45 13 23 11 59 23 63 21 1 0 17 7 35 17 17 9 34 18 37 18 22 4 80 31 80
37 0 4 3 7 8 6 12 -4 72 24 72 33 0 5 3 8 8 7 12 -3 82 33 82 43 0 5 3 8 8 7
15 -4 52 14 47 23 -3 5 1 6 9 3 9 -3 16 -1 16 5 0 6 11 16 25 21 14 5 25 15
25 21 0 7 3 9 7 6 6 -7 71 37 85 57 5 7 8 7 8 1 0 -6 3 -6 8 0 4 6 43 39 87
74 44 35 79 68 77 73 -1 5 1 7 6 4 5 -3 28 15 51 39 36 37 46 43 66 35 19 -7
46 -7 65 0 3 1 8 2 11 2 4 -1 15 8 25 19 24 27 25 100 1 123 -9 10 -17 14 -17
9 0 -4 -4 -2 -8 5 -10 15 -50 23 -72 15z"/>
</g>
</svg>
